<svg width="40" height="40" viewBox="0 0 40 40" fill="none" xmlns="http://www.w3.org/2000/svg">
<path d="M34.5 20C34.5 29.1269 27.3226 36.5 18.5 36.5C9.67741 36.5 2.5 29.1269 2.5 20C2.5 10.8731 9.67741 3.5 18.5 3.5C27.3226 3.5 34.5 10.8731 34.5 20Z" fill="white" stroke="white"/>
<path fill-rule="evenodd" clip-rule="evenodd" d="M40 20C40 22.7572 39.5117 25.319 38.5352 27.6758C38.3757 28.0632 38.2031 28.4408 38.0176 28.8119C37.0671 30.7292 35.7747 32.5065 34.1374 34.1374C33.5938 34.6842 33.0306 35.1921 32.4544 35.6608C31.875 36.1328 31.2793 36.5658 30.6706 36.9564C27.5293 38.9844 23.9714 39.9967 20 39.9967C17.2428 39.9967 14.6842 39.5085 12.3242 38.5319C11.9368 38.3724 11.5592 38.1999 11.1882 38.0143C9.27083 37.0638 7.49349 35.7715 5.86263 34.1341C5.31576 33.5905 4.80794 33.0273 4.33919 32.4512C3.86719 31.8717 3.43425 31.276 3.04362 30.6673C1.01237 27.5326 0 23.9714 0 20C0 17.2428 0.488281 14.6842 1.46484 12.3242C1.62435 11.9368 1.79688 11.5592 1.98242 11.1882C2.93294 9.27083 4.22526 7.49349 5.86263 5.86263C6.40625 5.31576 6.9694 4.80794 7.54557 4.33919C8.125 3.86719 8.7207 3.43425 9.32943 3.04362C12.4674 1.01237 16.0286 0 20 0C22.7572 0 25.3158 0.488281 27.6758 1.46484C28.0632 1.62435 28.4408 1.79688 28.8119 1.98242C30.7292 2.93294 32.5065 4.22526 34.1374 5.86263C34.6842 6.40625 35.1921 6.9694 35.6608 7.54557C36.1328 8.125 36.5658 8.7207 36.9564 9.32943C38.9876 12.4674 40 16.0286 40 20ZM20 3.56771C20.0358 3.56771 20.0716 3.56771 20.1042 3.56771V36.4323C20.0684 36.4323 20.0326 36.4323 20 36.4323C10.9245 36.4323 3.56771 29.0755 3.56771 20C3.56771 10.9245 10.9245 3.56771 20 3.56771Z" fill="black"/>
</svg>
